<!-- Generator: Adobe Illustrator 23.0.1, SVG Export Plug-In . SVG Version: 6.00 Build 0)  -->
<svg xmlns="http://www.w3.org/2000/svg" xmlns:xlink="http://www.w3.org/1999/xlink" viewBox="0 0 64 64" width="50px" height="50px">
  <g>
    <radialGradient id="SVGID_1__119695" cx="36.8333" cy="35.9167" r="26.0001" gradientUnits="userSpaceOnUse" spreadMethod="reflect">
      <stop offset="0" style="stop-color:#AFEEFF" />
      <stop offset="0.1927" style="stop-color:#BBF1FF" />
      <stop offset="0.7025" style="stop-color:#D7F8FF" />
      <stop offset="1" style="stop-color:#E1FAFF" />
    </radialGradient>
    <path style="fill:url(#SVGID_1__119695);" d="M10,8L10,8c2.209,0,4-1.791,4-4v0c0-2.209-1.791-4-4-4h0C7.791,0,6,1.791,6,4v0   C6,6.209,7.791,8,10,8z" />
    <radialGradient id="SVGID_2__119695" cx="31.4167" cy="29.9167" r="28.7704" gradientUnits="userSpaceOnUse" spreadMethod="reflect">
      <stop offset="0" style="stop-color:#AFEEFF" />
      <stop offset="0.1927" style="stop-color:#BBF1FF" />
      <stop offset="0.7025" style="stop-color:#D7F8FF" />
      <stop offset="1" style="stop-color:#E1FAFF" />
    </radialGradient>
    <path style="fill:url(#SVGID_2__119695);" d="M7.5,64L7.5,64c1.933,0,3.5-1.567,3.5-3.5v0c0-1.933-1.567-3.5-3.5-3.5h0   C5.567,57,4,58.567,4,60.5v0C4,62.433,5.567,64,7.5,64z" />
    <radialGradient id="SVGID_3__119695" cx="32.5" cy="32" r="30.7754" gradientUnits="userSpaceOnUse" spreadMethod="reflect">
      <stop offset="0" style="stop-color:#AFEEFF" />
      <stop offset="0.1927" style="stop-color:#BBF1FF" />
      <stop offset="0.7025" style="stop-color:#D7F8FF" />
      <stop offset="1" style="stop-color:#E1FAFF" />
    </radialGradient>
    <path style="fill:url(#SVGID_3__119695);" d="M62,20.5L62,20.5c0-2.485-2.015-4.5-4.5-4.5H44c-2.209,0-4-1.791-4-4v0c0-2.209,1.791-4,4-4   h2c2.209,0,4-1.791,4-4v0c0-2.209-1.791-4-4-4L22,0c-2.209,0-4,1.791-4,4v0c0,2.209,1.791,4,4,4h2c1.657,0,3,1.343,3,3v0   c0,1.657-1.343,3-3,3H10.5C8.567,14,7,15.567,7,17.5v0c0,1.933,1.567,3.5,3.5,3.5H13c1.657,0,3,1.343,3,3v0c0,1.657-1.343,3-3,3H8   c-2.761,0-5,2.239-5,5v0c0,2.761,2.239,5,5,5h5.5c1.933,0,3.5,1.567,3.5,3.5v0c0,1.933-1.567,3.5-3.5,3.5H9c-2.209,0-4,1.791-4,4v0   c0,2.209,1.791,4,4,4h8.5c1.381,0,2.5,1.119,2.5,2.5v0c0,1.381-1.119,2.5-2.5,2.5h0c-1.933,0-3.5,1.567-3.5,3.5v0   c0,1.933,1.567,3.5,3.5,3.5h30c1.933,0,3.5-1.567,3.5-3.5v0c0-1.933-1.567-3.5-3.5-3.5H47c-1.105,0-2-0.895-2-2v0   c0-1.105,0.895-2,2-2h7c2.209,0,4-1.791,4-4v0c0-2.209-1.791-4-4-4h-6.5c-1.381,0-2.5-1.119-2.5-2.5v0c0-1.381,1.119-2.5,2.5-2.5   H48c2.209,0,4-1.791,4-4v0c0-2.209-1.791-4-4-4h-1.5c-1.933,0-3.5-1.567-3.5-3.5v0c0-1.933,1.567-3.5,3.5-3.5h11   C59.985,25,62,22.985,62,20.5z" />
    <radialGradient id="SVGID_4__119695" cx="35.9167" cy="35.4167" r="27.9377" gradientUnits="userSpaceOnUse" spreadMethod="reflect">
      <stop offset="0" style="stop-color:#AFEEFF" />
      <stop offset="0.1927" style="stop-color:#BBF1FF" />
      <stop offset="0.7025" style="stop-color:#D7F8FF" />
      <stop offset="1" style="stop-color:#E1FAFF" />
    </radialGradient>
    <path style="fill:url(#SVGID_4__119695);" d="M59,40L59,40c-2.209,0-4-1.791-4-4v0c0-2.209,1.791-4,4-4h0c2.209,0,4,1.791,4,4v0   C63,38.209,61.209,40,59,40z" />
  </g>
  <linearGradient id="SVGID_5__119695" gradientUnits="userSpaceOnUse" x1="32" y1="6" x2="32" y2="29" spreadMethod="reflect">
    <stop offset="0" style="stop-color:#A4A4A4" />
    <stop offset="0.6301" style="stop-color:#7F7F7F" />
    <stop offset="1" style="stop-color:#6F6F6F" />
    <stop offset="1" style="stop-color:#6F6F6F" />
  </linearGradient>
  <path style="fill:url(#SVGID_5__119695);" d="M32,6c-7.18,0-13,5.82-13,13v10h5V19c0-4.411,3.589-8,8-8s8,3.589,8,8v10h5V19  C45,11.82,39.18,6,32,6z" />
  <linearGradient id="SVGID_6__119695" gradientUnits="userSpaceOnUse" x1="32" y1="25" x2="32" y2="57" spreadMethod="reflect">
    <stop offset="0" style="stop-color:#42D778" />
    <stop offset="0.4284" style="stop-color:#3DCA76" />
    <stop offset="1" style="stop-color:#34B171" />
  </linearGradient>
  <path style="fill:url(#SVGID_6__119695);" d="M49,57H15c-1.657,0-3-1.343-3-3V35c0-5.523,4.477-10,10-10h20c5.523,0,10,4.477,10,10v19  C52,55.657,50.657,57,49,57z" />
  <linearGradient id="SVGID_7__119695" gradientUnits="userSpaceOnUse" x1="44.5" y1="57" x2="44.5" y2="32.3671" spreadMethod="reflect">
    <stop offset="0" style="stop-color:#37AB6A" />
    <stop offset="0.4222" style="stop-color:#39B66F" />
    <stop offset="1" style="stop-color:#3AC074" />
  </linearGradient>
  <path style="fill:url(#SVGID_7__119695);" d="M41,43L41,43c0,1.657,1.343,3,3,3h0.5c1.381,0,2.5,1.119,2.5,2.5v0c0,1.381-1.119,2.5-2.5,2.5  H40c-1.657,0-3,1.343-3,3v0c0,1.657,1.343,3,3,3h9c1.657,0,3-1.343,3-3V40h-8C42.343,40,41,41.343,41,43z" />
  <linearGradient id="SVGID_8__119695" gradientUnits="userSpaceOnUse" x1="19.5" y1="29.2617" x2="19.5" y2="55.5962" spreadMethod="reflect">
    <stop offset="0" style="stop-color:#62DE8F" />
    <stop offset="0.4776" style="stop-color:#5DD18D" />
    <stop offset="1" style="stop-color:#56BE89" />
  </linearGradient>
  <path style="fill:url(#SVGID_8__119695);" d="M23,37.5L23,37.5c0-1.381-1.119-2.5-2.5-2.5h-1c-1.381,0-2.5-1.119-2.5-2.5v0  c0-1.381,1.119-2.5,2.5-2.5h5c1.381,0,2.5-1.119,2.5-2.5v0c0-1.381-1.119-2.5-2.5-2.5H22c-5.523,0-10,4.477-10,10v5h8.5  C21.881,40,23,38.881,23,37.5z" />
  <g>
    <circle style="fill:#FFFFFF;" cx="32" cy="41" r="3" />
    <circle style="fill:#FFFFFF;" cx="42" cy="41" r="3" />
    <circle style="fill:#FFFFFF;" cx="22" cy="41" r="3" />
  </g>
</svg>